<svg version="1.1" id="Layer_1" xmlns="http://www.w3.org/2000/svg" xmlns:xlink="http://www.w3.org/1999/xlink" x="0px" y="0px"
	 width="100%" viewBox="0 0 192 176" enable-background="new 0 0 192 176" xml:space="preserve">
<path fill="#FFFFFF" opacity="1.000000" stroke="none" 
	d="
M102.468399,177.000000 
	C102.618530,176.040344 103.097816,174.945953 103.876465,174.141235 
	C115.555237,162.071716 127.323151,150.088211 138.969742,137.987885 
	C153.367371,123.029312 167.693054,108.001251 182.002762,92.958450 
	C185.857849,88.905876 187.947678,84.472511 187.827240,78.365646 
	C187.390350,56.212196 187.673401,34.044647 187.661850,11.882426 
	C187.661270,10.773711 188.136932,9.548816 186.624924,8.090588 
	C180.722412,12.753222 175.596222,18.299858 170.527939,23.904995 
	C169.864594,24.638599 169.422440,25.586926 168.712082,26.261171 
	C151.567139,42.534546 136.383942,60.690327 119.652740,77.363312 
	C114.125259,82.871567 108.924599,88.709114 103.609474,94.428589 
	C100.906921,97.336754 98.358231,98.796944 95.960594,94.132614 
	C95.667145,93.561737 95.090462,93.131432 94.626534,92.653961 
	C83.263031,80.958618 71.849945,69.310997 60.543167,57.561077 
	C45.902012,42.346096 31.361034,27.034718 16.725197,11.814587 
	C15.417187,10.454357 14.358659,8.569194 12.056883,8.389031 
	C10.823518,10.096192 11.384080,11.985285 11.380017,13.738004 
	C11.332900,34.067200 11.939888,54.421509 11.081843,74.714554 
	C10.694773,83.868912 14.138897,90.142128 20.059578,96.013084 
	C26.211126,102.112961 32.457890,108.123756 38.437412,114.388832 
	C53.466805,130.135941 68.254608,146.108261 83.507339,161.650284 
	C88.108810,166.339020 92.837761,171.082199 96.966461,176.657608 
	C90.645599,177.000000 84.291206,177.000000 77.366058,176.608124 
	C77.262917,171.510635 74.189079,168.463898 71.413589,165.481613 
	C59.979794,153.195938 48.103119,141.309372 36.977016,128.755188 
	C29.949776,120.825958 22.021353,113.782295 15.257932,105.633644 
	C14.564919,104.798698 13.685366,104.266266 12.645567,104.611076 
	C11.235345,105.078705 11.376940,106.415749 11.373363,107.561218 
	C11.350478,114.891472 11.385954,122.222015 11.342040,129.552094 
	C11.247290,145.368179 11.116214,161.184052 11.000000,177.000000 
	C7.666667,177.000000 4.333333,177.000000 1.000000,177.000000 
	C1.000000,118.333336 1.000000,59.666668 1.000000,1.000000 
	C65.000000,1.000000 129.000000,1.000000 193.000000,1.000000 
	C193.000000,59.666668 193.000000,118.333336 193.000000,177.000000 
	C191.666641,177.000000 190.333282,177.000000 188.391449,176.541687 
	C187.782990,152.226288 187.782990,128.369202 187.782990,104.252258 
	C184.464401,104.925636 183.078552,106.905510 181.530640,108.534424 
	C164.046524,126.933487 146.516602,145.291000 129.242203,163.885620 
	C125.860489,167.525787 121.783325,171.189713 122.000000,177.000000 
	C115.645599,177.000000 109.291206,177.000000 102.468399,177.000000 
z"/>
</svg>